<?xml version="1.0" encoding="UTF-8" standalone="no"?>
<!-- Created with Inkscape (http://www.inkscape.org/) -->

<svg
   version="1.1"
   id="svg2"
   width="500"
   height="500"
   viewBox="0 0 500 500"
   sodipodi:docname="logo.svg"
   inkscape:version="1.2.1 (9c6d41e410, 2022-07-14)"
   xmlns:inkscape="http://www.inkscape.org/namespaces/inkscape"
   xmlns:sodipodi="http://sodipodi.sourceforge.net/DTD/sodipodi-0.dtd"
   xmlns="http://www.w3.org/2000/svg"
   xmlns:svg="http://www.w3.org/2000/svg">
  <defs
     id="defs6" />
  <sodipodi:namedview
     id="namedview4"
     pagecolor="#505050"
     bordercolor="#eeeeee"
     borderopacity="1"
     inkscape:showpageshadow="0"
     inkscape:pageopacity="0"
     inkscape:pagecheckerboard="0"
     inkscape:deskcolor="#505050"
     showgrid="false"
     inkscape:zoom="1.1370277"
     inkscape:cx="400.60589"
     inkscape:cy="302.10346"
     inkscape:window-width="1920"
     inkscape:window-height="991"
     inkscape:window-x="-9"
     inkscape:window-y="-9"
     inkscape:window-maximized="1"
     inkscape:current-layer="g8">
    <inkscape:grid
       type="xygrid"
       id="grid174" />
  </sodipodi:namedview>
  <g
     inkscape:groupmode="layer"
     inkscape:label="Image"
     id="g8">
    <g
       id="g1169"
       transform="translate(7.026708,-5.5135009)">
      <path
         id="path172"
         style="display:inline;fill:#ffcc00;stroke-width:1.26671"
         d="m 267.83565,94.71643 c -7.56681,-0.11438 -15.23413,0.27291 -22.86505,1.06136 -0.61416,0.0469 -1.22696,0.10906 -1.84068,0.16081 -6.48283,0.73128 -12.89776,1.86721 -19.22079,3.23357 -1.83175,0.47494 -3.67157,0.91733 -5.53689,1.24444 -0.12541,0.0248 -0.25071,0.0494 -0.37606,0.0742 -15.29817,3.83112 -29.36362,10.09611 -41.90772,16.96943 -6.62916,3.63232 -12.62765,7.86752 -18.48106,12.23411 -35.08351,26.1169 -62.15817,73.3876 -66.54171,116.17336 -0.86229,8.41664 -0.86227,8.41451 14.19603,7.64231 49.36825,-2.53221 84.16882,32.87036 68.31559,69.49571 -1.57358,3.63565 22.36256,-2.14032 37.94679,-9.15642 22.64421,-10.19438 61.02233,-18.96571 83.14248,-19.00308 49.51181,-0.0837 93.30775,36.72673 93.53098,78.61501 0.017,3.19298 0.40751,6.1819 0.86592,6.64032 1.32235,1.32216 3.9522,-1.45822 11.71209,-12.38008 66.99322,-94.29066 29.98354,-217.35803 -79.04796,-262.85162 -15.68356,-6.54388 -34.44888,-9.85952 -53.89196,-10.15345 z m -108.02883,210.976 c -5.1e-4,0.0713 0.0137,0.38526 0.0247,0.67294 0.0139,-0.14532 0.0379,-0.28862 0.0569,-0.43296 -0.0597,-0.24209 -0.081,-0.34114 -0.0817,-0.23998 z"
         inkscape:label="sol" />
      <path
         id="path432"
         style="display:inline;fill:#00beff;fill-opacity:1;stroke-width:1.26671"
         d="m 362.51211,243.45307 c 0.14845,0.40917 0.15658,0.35918 0.26967,0.67047 -0.04,-0.1362 -0.0608,-0.2779 -0.10387,-0.41316 -0.0309,-0.0969 -0.20047,-0.35294 -0.16576,-0.25731 z m -0.44285,13.07776 c -0.11616,-0.0778 0.0168,0.0576 0.24988,0.27957 0.38288,0.2839 0.77682,0.54284 1.15289,0.85107 0.0333,0.016 0.0682,0.0285 0.10147,0.0446 -0.51118,-0.41072 -1.21597,-0.98208 -1.50422,-1.17518 z m -255.51114,13.93131 c -9.37314,0.24159 -18.6738,2.56075 -26.71218,7.59282 -54.606782,34.18327 -24.74386,115.19947 45.42084,123.22436 36.25108,4.14624 68.17452,-4.86625 106.39103,-30.0348 34.7804,-22.9056 73.14069,-29.00098 101.66067,-16.153 2.1951,0.989 4.48344,1.79864 5.08414,1.79864 1.57053,0 14.34977,8.61112 18.57754,12.51862 4.16742,3.85148 12.20797,17.64725 12.33803,21.17034 0.21015,5.69233 2.26864,-2.84195 2.35528,-9.76502 0.61445,-49.0734 -53.3339,-80.8793 -110.11444,-64.91874 -17.59512,4.90585 -35.81972,11.23775 -51.93499,16.70964 -58.50079,20.09954 -99.89025,12.89298 -92.88279,-16.17278 4.58619,-19.02187 33.18035,-10.6361 29.66124,8.69872 -0.49494,2.7194 4.63003,-0.97358 9.21826,-6.64279 18.06457,-22.31919 -12.92073,-46.84214 -45.04479,-48.00374 -1.33854,-0.0484 -2.67882,-0.0567 -4.01784,-0.0223 z m 192.62853,89.66158 c -9.32085,0.0478 -18.85331,1.26227 -28.05805,3.78034 -36.31798,9.93511 -40.88266,40.20856 -7.60272,50.42086 9.14901,2.80756 26.49456,2.63753 33.01603,-0.3241 12.98569,-5.89687 12.49645,-19.51531 -0.76447,-21.29402 -5.65569,-0.75859 -5.65419,-0.75922 -2.20685,3.33746 10.08446,11.98474 -16.72213,16.40107 -28.12733,4.63388 -11.4663,-11.83048 3.46144,-27.26286 30.09914,-31.11597 27.33518,-3.95375 48.51388,1.4775 63.26113,16.22474 7.06471,7.06472 7.06546,7.06691 4.02526,1.6576 -9.61683,-17.11102 -35.67932,-27.46404 -63.64214,-27.32079 z m 89.85209,19.88384 c 0.009,0.0114 0.0153,0.0846 0.0247,0.094 0.18317,0.18308 0.39975,0.26458 0.64325,0.27956 -0.22824,-0.11767 -0.44107,-0.25388 -0.66799,-0.37357 z"
         inkscape:label="ondas"
         sodipodi:nodetypes="scsssscccsssccssscsccccscsssssscscccssssscss" />
    </g>
  </g>
</svg>
