<?xml version="1.0" standalone="no"?>
<svg xmlns:xlink="http://www.w3.org/1999/xlink" id="wave" style="transform:rotate(0deg); transition: 0.3s" viewBox="0 0 1440 100" version="1.1" xmlns="http://www.w3.org/2000/svg"><defs><linearGradient id="sw-gradient-0" x1="0" x2="0" y1="1" y2="0"><stop stop-color="rgba(241, 241, 241, 1)" offset="0%"/><stop stop-color="rgba(241, 241, 241, 1)" offset="100%"/></linearGradient></defs><path style="transform:translate(0, 0px); opacity:1" fill="url(#sw-gradient-0)" d="M0,30L34.3,26.7C68.6,23,137,17,206,26.7C274.3,37,343,63,411,65C480,67,549,43,617,31.7C685.7,20,754,20,823,28.3C891.4,37,960,53,1029,65C1097.1,77,1166,83,1234,75C1302.9,67,1371,43,1440,41.7C1508.6,40,1577,60,1646,70C1714.3,80,1783,80,1851,66.7C1920,53,1989,27,2057,28.3C2125.7,30,2194,60,2263,68.3C2331.4,77,2400,63,2469,56.7C2537.1,50,2606,50,2674,48.3C2742.9,47,2811,43,2880,46.7C2948.6,50,3017,60,3086,55C3154.3,50,3223,30,3291,26.7C3360,23,3429,37,3497,41.7C3565.7,47,3634,43,3703,35C3771.4,27,3840,13,3909,15C3977.1,17,4046,33,4114,38.3C4182.9,43,4251,37,4320,43.3C4388.6,50,4457,70,4526,80C4594.3,90,4663,90,4731,90C4800,90,4869,90,4903,90L4937.1,90L4937.1,100L4902.9,100C4868.6,100,4800,100,4731,100C4662.9,100,4594,100,4526,100C4457.1,100,4389,100,4320,100C4251.4,100,4183,100,4114,100C4045.7,100,3977,100,3909,100C3840,100,3771,100,3703,100C3634.3,100,3566,100,3497,100C3428.6,100,3360,100,3291,100C3222.9,100,3154,100,3086,100C3017.1,100,2949,100,2880,100C2811.4,100,2743,100,2674,100C2605.7,100,2537,100,2469,100C2400,100,2331,100,2263,100C2194.3,100,2126,100,2057,100C1988.6,100,1920,100,1851,100C1782.9,100,1714,100,1646,100C1577.1,100,1509,100,1440,100C1371.4,100,1303,100,1234,100C1165.7,100,1097,100,1029,100C960,100,891,100,823,100C754.3,100,686,100,617,100C548.6,100,480,100,411,100C342.9,100,274,100,206,100C137.1,100,69,100,34,100L0,100Z"/></svg>